<mxfile host="65bd71144e">
    <diagram id="xH-T24poy5hYIG6f6IRd" name="Page-1">
        <mxGraphModel dx="3297" dy="680" grid="0" gridSize="10" guides="1" tooltips="1" connect="1" arrows="1" fold="1" page="0" pageScale="1" pageWidth="1100" pageHeight="850" math="0" shadow="0">
            <root>
                <mxCell id="0"/>
                <mxCell id="1" parent="0"/>
                <mxCell id="294" value="Giraffe Flight Computer - Block Diagram" style="swimlane;rounded=1;shadow=0;glass=0;sketch=0;fontSize=20;strokeColor=#8C8C8C;strokeWidth=2;" parent="1" vertex="1">
                    <mxGeometry x="-429" y="405" width="920" height="290" as="geometry"/>
                </mxCell>
                <mxCell id="357" style="edgeStyle=none;html=1;entryX=1;entryY=0.75;entryDx=0;entryDy=0;endArrow=none;endFill=0;strokeWidth=2;strokeColor=#b85450;fillColor=#f8cecc;gradientColor=#ea6b66;" parent="294" source="332" target="337" edge="1">
                    <mxGeometry relative="1" as="geometry">
                        <Array as="points">
                            <mxPoint x="760" y="245"/>
                            <mxPoint x="760" y="143"/>
                        </Array>
                    </mxGeometry>
                </mxCell>
                <mxCell id="312" value="Bottom PCB [GFC Shoe]" style="swimlane;rounded=1;shadow=0;glass=0;sketch=0;fontSize=12;strokeColor=#8C8C8C;strokeWidth=2;startSize=20;" parent="294" vertex="1">
                    <mxGeometry x="10" y="30" width="160" height="250" as="geometry"/>
                </mxCell>
                <mxCell id="342" style="edgeStyle=none;html=1;exitX=0.25;exitY=1;exitDx=0;exitDy=0;entryX=0.25;entryY=0;entryDx=0;entryDy=0;endArrow=none;endFill=0;strokeWidth=2;fillColor=#6d8764;strokeColor=#3A5431;" parent="312" source="325" target="327" edge="1">
                    <mxGeometry relative="1" as="geometry"/>
                </mxCell>
                <mxCell id="344" value="Audio In" style="edgeLabel;html=1;align=center;verticalAlign=middle;resizable=0;points=[];" parent="342" vertex="1" connectable="0">
                    <mxGeometry x="-0.1617" y="1" relative="1" as="geometry">
                        <mxPoint x="-1" y="13" as="offset"/>
                    </mxGeometry>
                </mxCell>
                <mxCell id="325" value="SA868&lt;br&gt;2w VHF Radio" style="whiteSpace=wrap;html=1;" parent="312" vertex="1">
                    <mxGeometry x="20" y="50" width="120" height="60" as="geometry"/>
                </mxCell>
                <mxCell id="343" style="edgeStyle=none;html=1;exitX=0.75;exitY=0;exitDx=0;exitDy=0;entryX=0.75;entryY=1;entryDx=0;entryDy=0;endArrow=none;endFill=0;strokeWidth=2;fillColor=#6d8764;strokeColor=#3A5431;" parent="312" source="327" target="325" edge="1">
                    <mxGeometry relative="1" as="geometry"/>
                </mxCell>
                <mxCell id="345" value="Audio Out" style="edgeLabel;html=1;align=center;verticalAlign=middle;resizable=0;points=[];" parent="343" vertex="1" connectable="0">
                    <mxGeometry x="-0.4597" y="-1" relative="1" as="geometry">
                        <mxPoint as="offset"/>
                    </mxGeometry>
                </mxCell>
                <mxCell id="327" value="PCM2902C&lt;br&gt;TI Sound Card IC" style="whiteSpace=wrap;html=1;" parent="312" vertex="1">
                    <mxGeometry x="20" y="150" width="120" height="60" as="geometry"/>
                </mxCell>
                <mxCell id="336" style="edgeStyle=none;html=1;entryX=0;entryY=0.5;entryDx=0;entryDy=0;endArrow=none;endFill=0;fillColor=#dae8fc;strokeColor=#6c8ebf;strokeWidth=2;" parent="294" source="311" target="334" edge="1">
                    <mxGeometry relative="1" as="geometry"/>
                </mxCell>
                <mxCell id="314" value="Top PCB [GFC Hat]" style="swimlane;rounded=1;shadow=0;glass=0;sketch=0;fontSize=12;strokeColor=#8C8C8C;strokeWidth=2;startSize=20;" parent="294" vertex="1">
                    <mxGeometry x="480" y="30" width="430" height="250" as="geometry"/>
                </mxCell>
                <mxCell id="329" value="BME280&lt;br&gt;Temp/Hum/Pres Sensor" style="whiteSpace=wrap;html=1;" parent="314" vertex="1">
                    <mxGeometry x="310" y="30" width="100" height="50" as="geometry"/>
                </mxCell>
                <mxCell id="330" value="SAM-M8Q&lt;br&gt;GPS" style="whiteSpace=wrap;html=1;" parent="314" vertex="1">
                    <mxGeometry x="310" y="110" width="100" height="50" as="geometry"/>
                </mxCell>
                <mxCell id="328" value="BMI088&lt;br&gt;6- Axis Gyro/Accelerator&amp;nbsp;" style="whiteSpace=wrap;html=1;" parent="314" vertex="1">
                    <mxGeometry x="160" y="30" width="100" height="50" as="geometry"/>
                </mxCell>
                <mxCell id="332" value="ADC&lt;br&gt;Battery Voltage" style="whiteSpace=wrap;html=1;" parent="314" vertex="1">
                    <mxGeometry x="310" y="190" width="100" height="50" as="geometry"/>
                </mxCell>
                <mxCell id="333" value="DS18B20&lt;br&gt;Temperature Probe&amp;nbsp;" style="whiteSpace=wrap;html=1;" parent="314" vertex="1">
                    <mxGeometry x="20" y="30" width="100" height="50" as="geometry"/>
                </mxCell>
                <mxCell id="334" value="5v Buck Boost Converter" style="whiteSpace=wrap;html=1;" parent="314" vertex="1">
                    <mxGeometry x="20" y="190" width="100" height="50" as="geometry"/>
                </mxCell>
                <mxCell id="335" value="Pi Hat EEPROM" style="whiteSpace=wrap;html=1;" parent="314" vertex="1">
                    <mxGeometry x="150" y="190" width="100" height="50" as="geometry"/>
                </mxCell>
                <UserObject label="Battery&lt;br&gt;[2x 21700 Cells]&amp;nbsp;" treeRoot="1" id="311">
                    <mxCell style="whiteSpace=wrap;html=1;align=center;treeFolding=1;treeMoving=1;newEdgeStyle={&quot;edgeStyle&quot;:&quot;elbowEdgeStyle&quot;,&quot;startArrow&quot;:&quot;none&quot;,&quot;endArrow&quot;:&quot;none&quot;};" parent="294" vertex="1">
                        <mxGeometry x="360" y="220" width="102" height="50" as="geometry"/>
                    </mxCell>
                </UserObject>
                <mxCell id="338" style="edgeStyle=none;html=1;entryX=1;entryY=0.75;entryDx=0;entryDy=0;endArrow=none;endFill=0;strokeWidth=2;fillColor=#d80073;strokeColor=#A50040;" parent="294" source="337" target="325" edge="1">
                    <mxGeometry relative="1" as="geometry"/>
                </mxCell>
                <mxCell id="339" value="UART" style="edgeLabel;html=1;align=center;verticalAlign=middle;resizable=0;points=[];" parent="338" vertex="1" connectable="0">
                    <mxGeometry x="-0.3486" y="-2" relative="1" as="geometry">
                        <mxPoint x="-13" y="2" as="offset"/>
                    </mxGeometry>
                </mxCell>
                <mxCell id="337" value="Raspberry Pi Zero 2" style="whiteSpace=wrap;html=1;" parent="294" vertex="1">
                    <mxGeometry x="250" y="90" width="130" height="70" as="geometry"/>
                </mxCell>
                <mxCell id="340" style="edgeStyle=none;html=1;exitX=-0.004;exitY=0.071;exitDx=0;exitDy=0;entryX=1;entryY=0.25;entryDx=0;entryDy=0;endArrow=none;endFill=0;strokeWidth=2;exitPerimeter=0;fillColor=#e3c800;strokeColor=#B09500;" parent="294" edge="1">
                    <mxGeometry relative="1" as="geometry">
                        <mxPoint x="250.00000000000003" y="100.00000000000003" as="sourcePoint"/>
                        <mxPoint x="150.52" y="100.03" as="targetPoint"/>
                    </mxGeometry>
                </mxCell>
                <mxCell id="341" value="GPIO" style="edgeLabel;html=1;align=center;verticalAlign=middle;resizable=0;points=[];" parent="340" vertex="1" connectable="0">
                    <mxGeometry x="-0.1337" y="-1" relative="1" as="geometry">
                        <mxPoint x="-2" y="1" as="offset"/>
                    </mxGeometry>
                </mxCell>
                <mxCell id="346" style="edgeStyle=none;html=1;exitX=1;exitY=0.5;exitDx=0;exitDy=0;entryX=0.077;entryY=1.003;entryDx=0;entryDy=0;endArrow=none;endFill=0;strokeWidth=2;entryPerimeter=0;fillColor=#fad9d5;strokeColor=#ae4132;" parent="294" source="327" target="337" edge="1">
                    <mxGeometry relative="1" as="geometry">
                        <Array as="points">
                            <mxPoint x="260" y="210"/>
                        </Array>
                    </mxGeometry>
                </mxCell>
                <mxCell id="347" value="USB" style="edgeLabel;html=1;align=center;verticalAlign=middle;resizable=0;points=[];" parent="346" vertex="1" connectable="0">
                    <mxGeometry x="-0.219" relative="1" as="geometry">
                        <mxPoint x="-8" as="offset"/>
                    </mxGeometry>
                </mxCell>
                <mxCell id="348" style="edgeStyle=none;html=1;entryX=0.5;entryY=0;entryDx=0;entryDy=0;endArrow=none;endFill=0;strokeWidth=2;exitX=0;exitY=0.25;exitDx=0;exitDy=0;gradientColor=#d5739d;fillColor=#e6d0de;strokeColor=#996185;" parent="294" source="333" target="337" edge="1">
                    <mxGeometry relative="1" as="geometry">
                        <Array as="points">
                            <mxPoint x="315" y="73"/>
                        </Array>
                    </mxGeometry>
                </mxCell>
                <mxCell id="349" value="1-Wire" style="edgeLabel;html=1;align=center;verticalAlign=middle;resizable=0;points=[];" parent="348" vertex="1" connectable="0">
                    <mxGeometry x="-0.0059" relative="1" as="geometry">
                        <mxPoint as="offset"/>
                    </mxGeometry>
                </mxCell>
                <mxCell id="350" style="edgeStyle=none;html=1;entryX=1;entryY=0.5;entryDx=0;entryDy=0;endArrow=none;endFill=0;strokeWidth=2;gradientColor=#97d077;fillColor=#d5e8d4;strokeColor=#82b366;" parent="294" source="328" target="337" edge="1">
                    <mxGeometry relative="1" as="geometry">
                        <Array as="points">
                            <mxPoint x="690" y="125"/>
                        </Array>
                    </mxGeometry>
                </mxCell>
                <mxCell id="351" value="SPI 0" style="edgeLabel;html=1;align=center;verticalAlign=middle;resizable=0;points=[];" parent="350" vertex="1" connectable="0">
                    <mxGeometry x="0.152" relative="1" as="geometry">
                        <mxPoint x="22" as="offset"/>
                    </mxGeometry>
                </mxCell>
                <mxCell id="352" style="edgeStyle=none;html=1;entryX=1;entryY=0.75;entryDx=0;entryDy=0;endArrow=none;endFill=0;strokeWidth=2;gradientColor=#ea6b66;fillColor=#f8cecc;strokeColor=#b85450;" parent="294" source="329" target="337" edge="1">
                    <mxGeometry relative="1" as="geometry">
                        <Array as="points">
                            <mxPoint x="760" y="85"/>
                            <mxPoint x="760" y="143"/>
                        </Array>
                    </mxGeometry>
                </mxCell>
                <mxCell id="355" style="edgeStyle=none;html=1;entryX=1;entryY=0.75;entryDx=0;entryDy=0;endArrow=none;endFill=0;strokeWidth=2;strokeColor=#b85450;fillColor=#f8cecc;gradientColor=#ea6b66;" parent="294" source="330" target="337" edge="1">
                    <mxGeometry relative="1" as="geometry">
                        <Array as="points">
                            <mxPoint x="760" y="165"/>
                            <mxPoint x="760" y="143"/>
                        </Array>
                    </mxGeometry>
                </mxCell>
                <mxCell id="356" value="I2C 0" style="edgeLabel;html=1;align=center;verticalAlign=middle;resizable=0;points=[];" parent="355" vertex="1" connectable="0">
                    <mxGeometry x="0.2583" y="-1" relative="1" as="geometry">
                        <mxPoint as="offset"/>
                    </mxGeometry>
                </mxCell>
                <mxCell id="358" style="edgeStyle=none;html=1;entryX=1;entryY=1;entryDx=0;entryDy=0;endArrow=none;endFill=0;strokeWidth=2;gradientColor=#ffd966;fillColor=#fff2cc;strokeColor=#d6b656;" parent="294" source="335" target="337" edge="1">
                    <mxGeometry relative="1" as="geometry">
                        <Array as="points">
                            <mxPoint x="680" y="160"/>
                        </Array>
                    </mxGeometry>
                </mxCell>
                <mxCell id="359" value="I2C 1" style="edgeLabel;html=1;align=center;verticalAlign=middle;resizable=0;points=[];" parent="358" vertex="1" connectable="0">
                    <mxGeometry x="0.11" y="-1" relative="1" as="geometry">
                        <mxPoint as="offset"/>
                    </mxGeometry>
                </mxCell>
            </root>
        </mxGraphModel>
    </diagram>
</mxfile>